<svg xmlns="http://www.w3.org/2000/svg" width="5016.516" height="1077.3" viewBox="0 0 5016.516 1077.3">
  <g id="amber_group_horizontal_with_tag_line" data-name="amber group horizontal with tag line" transform="translate(-723.42 -1613.15)">
    <path id="Path_42" data-name="Path 42" d="M1541.112,2077.714h-74.358L1147.04,1758.007,827.327,2077.714H752.976c-26.006,0-39.035-31.449-20.637-49.847l1.642-1.642,340.638-340.645,72.429-72.429,72.429,72.429,340.638,340.645,1.642,1.642C1580.147,2046.264,1567.118,2077.714,1541.112,2077.714Z" transform="translate(-0.08 0)" fill="#ee5f00"/>
    <path id="Path_43" data-name="Path 43" d="M1541.245,2300.285c26.014,0,39.043,31.449,20.644,49.847l-1.863,1.863-340.638,340.645-72.429,72.429-72.429-72.429L733.893,2352l-1.863-1.863c-18.391-18.391-5.369-49.847,20.644-49.847h74.359l319.92,319.92,223.127-223.127H1214.321l84.508-97.308h147.222Z" transform="translate(0 -180.915)" fill="#005293"/>
    <path id="Path_44" data-name="Path 44" d="M1399.445,2299.78l-84.508,97.308H1225.23l84.5-97.308Z" transform="translate(-132.22 -180.917)" fill="#ee5f00"/>
    <path id="Path_45" data-name="Path 45" d="M2496,1952.425v391.906H2404.33v-52.985q-18.5,29.453-52.565,46.253t-68.54,16.822q-44.589,0-81.576-16.4a190.679,190.679,0,0,1-63.495-44.994,209.168,209.168,0,0,1-41.208-65.6q-14.726-37-14.715-79.058a212.832,212.832,0,0,1,14.715-78.63,208.372,208.372,0,0,1,41.208-66.021,190.885,190.885,0,0,1,63.495-44.994q37-16.395,81.576-16.4,34.469,0,68.54,16.822t52.565,46.253V1952.41H2496ZM2288.27,2272.845q26.061,0,47.52-10.09a113.631,113.631,0,0,0,36.583-26.912,121.478,121.478,0,0,0,23.546-39.529,140.823,140.823,0,0,0,0-95.879,121.713,121.713,0,0,0-23.546-39.529,113.741,113.741,0,0,0-36.583-26.912q-21.443-10.1-47.52-10.09t-47.093,10.09a113.887,113.887,0,0,0-59.289,66.441,147.792,147.792,0,0,0,0,95.879,113.887,113.887,0,0,0,59.289,66.441Q2262.19,2272.842,2288.27,2272.845Z" transform="translate(-358.027 -86.731)" fill="#ee5f00"/>
    <path id="Path_46" data-name="Path 46" d="M3159.355,2344.326v-219.5q0-47.086-17.242-74.432-17.246-27.321-55.923-27.332a86.648,86.648,0,0,0-32.377,5.885q-14.727,5.889-26.073,20.18-11.357,14.307-17.662,37.422-6.308,23.145-6.3,58.45v199.315h-91.667V2123.969q0-47.1-16.4-74.012t-55.084-26.912a89.972,89.972,0,0,0-32.8,5.885q-15.135,5.888-26.492,20.18t-18.082,37.422q-6.739,23.145-6.724,58.45V2344.3H2664.86V1952.39h91.667v54.664q12.616-26.9,41.628-45.833t67.7-18.921q53.813,0,82.416,20.181,28.581,20.184,41.208,49.619,14.284-29.431,46.253-49.619,31.95-20.184,74.005-20.181,43.716,0,71.486,13.876,27.752,13.876,43.314,35.743a126.912,126.912,0,0,1,21.027,49.2,280.7,280.7,0,0,1,5.465,55.084V2344.3h-91.674Z" transform="translate(-511.542 -86.726)" fill="#ee5f00"/>
    <path id="Path_47" data-name="Path 47" d="M3856.57,2081.586c0-30.087,4.559-58.568,13.559-84.647q1.779-5.137,3.756-10.12a205.646,205.646,0,0,0-34.094-49.884,191.4,191.4,0,0,0-63.495-44.994q-37.01-16.395-81.576-16.395-34.491,0-68.54,16.822t-52.558,46.253V1688.84H3481.95v588.7h91.674v-52.985q18.483,29.453,52.558,46.253,34.06,16.826,68.54,16.822,44.566,0,81.576-16.395a190.823,190.823,0,0,0,63.495-44.994,207.266,207.266,0,0,0,33.747-48.9q-2.309-5.944-4.309-12.123A272.192,272.192,0,0,1,3856.57,2081.586Zm-60.519,47.94a113.933,113.933,0,0,1-59.3,66.441q-21.024,10.086-47.093,10.083-26.923,0-48.36-10.083a113.745,113.745,0,0,1-36.583-26.912,116,116,0,0,1-23.126-39.529,147.921,147.921,0,0,1,0-95.88,115.911,115.911,0,0,1,23.126-39.521,113.745,113.745,0,0,1,36.583-26.912q21.443-10.086,48.36-10.09,26.05,0,47.093,10.09a113.948,113.948,0,0,1,59.3,66.434,147.921,147.921,0,0,1,0,95.88Z" transform="translate(-726.833 -19.943)" fill="#ee5f00"/>
    <path id="Path_48" data-name="Path 48" d="M4094.2,2176.129a175.7,175.7,0,0,0,7.571,39.529,89.4,89.4,0,0,0,18.081,32.377q12.185,13.876,31.538,21.867,19.333,8,47.939,7.991,39.518,0,57.19-15.135a92.111,92.111,0,0,0,26.072-36.163H4375.1a137.433,137.433,0,0,1-18.082,48.359,147.962,147.962,0,0,1-36.583,40.788q-22.7,17.665-52.985,28.172t-68.12,10.51q-49.638,0-86.2-15.975t-60.976-43.734q-24.4-27.752-36.583-65.6-12.2-37.849-12.2-80.737,0-43.716,13.036-81.576t37.422-65.6q24.382-27.752,60.549-43.314,36.149-15.555,82.416-15.555a187.639,187.639,0,0,1,71.066,13.456,179.945,179.945,0,0,1,58.03,37.422,172.767,172.767,0,0,1,38.689,55.923q13.876,31.972,13.876,69.807,0,10.087-.419,23.966a243.618,243.618,0,0,1-3.786,33.217H4094.2ZM4194.276,2011.3q-42.887,0-71.486,24.393t-28.591,72.326h195.11q0-45.417-26.493-71.066T4194.276,2011.3Z" transform="translate(-864.223 -86.734)" fill="#ee5f00"/>
    <path id="Path_49" data-name="Path 49" d="M4783.214,2039.17a177.017,177.017,0,0,0-18.081-3.366,161.929,161.929,0,0,0-18.082-.839q-58.873,0-89.987,34.064T4625.947,2177.1v169.044H4534.28V1954.235h91.667v63.075a99.27,99.27,0,0,1,18.921-25.653,142.878,142.878,0,0,1,28.591-21.867,153.316,153.316,0,0,1,35.323-15.135,137.436,137.436,0,0,1,38.269-5.465q21.864,0,36.163,5.885Z" transform="translate(-1004.108 -88.542)" fill="#ee5f00"/>
    <g id="Group_23" data-name="Group 23" transform="translate(3850.667 1852.613)">
      <path id="Path_50" data-name="Path 50" d="M5385.479,2374.119q0,49.682-14.737,85.06t-41.687,58.111q-26.967,22.736-65.689,33.688-38.744,10.937-88.433,10.952t-85.907-13.9q-36.226-13.9-60.637-36.634a159.58,159.58,0,0,1-37.481-51.8,167.63,167.63,0,0,1-14.737-60.217h92.639q3.359,31.994,29.475,56,26.1,24.007,75.795,24,55.581,0,86.747-24.843,31.143-24.847,31.162-80.427V2301.69q-18.538,29.487-52.639,46.319t-68.636,16.844q-44.644,0-81.694-16.424a191.038,191.038,0,0,1-63.583-45.06,209.592,209.592,0,0,1-41.267-65.69q-14.749-37.054-14.737-79.168a213.172,213.172,0,0,1,14.737-78.748,208.641,208.641,0,0,1,41.267-66.109,191.236,191.236,0,0,1,63.583-45.06q37.054-16.428,81.694-16.424,34.524,0,68.636,16.844t52.639,46.319v-53.059h91.8Zm-209.708-340.247q-26.117,0-47.159,10.1a114.062,114.062,0,0,0-59.378,66.537,148.062,148.062,0,0,0,0,96.012,114.076,114.076,0,0,0,59.378,66.53q21.045,10.108,47.159,10.1,26.095,0,47.586-10.1a113.77,113.77,0,0,0,36.635-26.949,121.682,121.682,0,0,0,23.583-39.58,141.086,141.086,0,0,0,0-96.012,121.867,121.867,0,0,0-23.583-39.587,113.98,113.98,0,0,0-36.635-26.949Q5201.87,2033.879,5175.771,2033.872Z" transform="translate(-4969.43 -1941.94)" fill="#ee5f00"/>
      <path id="Path_51" data-name="Path 51" d="M5803.291,2042.3a174.051,174.051,0,0,0-18.1-3.366,162.393,162.393,0,0,0-18.1-.839q-58.961,0-90.112,34.108-31.166,34.1-31.162,108.223v169.281h-91.8V1957.243h91.8v63.163a99.283,99.283,0,0,1,18.95-25.689,142.884,142.884,0,0,1,28.636-21.9,153.14,153.14,0,0,1,35.375-15.157,137.5,137.5,0,0,1,38.321-5.472q21.885,0,36.214,5.892v84.22Z" transform="translate(-5123.458 -1941.945)" fill="#ee5f00"/>
      <path id="Path_52" data-name="Path 52" d="M6074.944,2364.864q-47.175,0-85.061-16.424-37.9-16.428-64.85-45.06a205.545,205.545,0,0,1-41.687-65.69q-14.749-37.054-14.737-79.168a213.172,213.172,0,0,1,14.737-78.748,204.762,204.762,0,0,1,41.687-66.109,193.641,193.641,0,0,1,64.85-45.06q37.893-16.428,85.061-16.424,47.151,0,85.479,16.424t65.69,45.06a201.6,201.6,0,0,1,42.106,66.109,218.884,218.884,0,0,1,0,157.916,202.6,202.6,0,0,1-42.106,65.69q-27.376,28.646-65.69,45.06T6074.944,2364.864Zm0-81.694q26.095,0,47.586-10.1a113.762,113.762,0,0,0,36.634-26.949,121.674,121.674,0,0,0,23.583-39.58,140.97,140.97,0,0,0,0-96.012,121.862,121.862,0,0,0-23.583-39.588,113.981,113.981,0,0,0-36.634-26.949q-21.477-10.109-47.586-10.1t-47.167,10.1a114.06,114.06,0,0,0-59.378,66.537,148.062,148.062,0,0,0,0,96.012,114.075,114.075,0,0,0,59.378,66.529Q6048.824,2283.162,6074.944,2283.169Z" transform="translate(-5206.352 -1941.942)" fill="#ee5f00"/>
      <path id="Path_53" data-name="Path 53" d="M6812.753,1952.18v392.466h-91.8V2289.9a120.388,120.388,0,0,1-51.372,48.426q-32.845,16.428-76.642,16.424-42.953,0-72.009-14.318t-45.9-38.741a138.53,138.53,0,0,1-19.791-48.845q-5.491-26.945-5.472-67.376V1952.18h91.8v202.969a248.561,248.561,0,0,0,4.213,47.159q4.209,21.907,13.9,37.481a71.387,71.387,0,0,0,26.11,24.843q16.427,9.28,40.847,9.265,48,0,71.169-34.108t23.164-84.64V1952.18Z" transform="translate(-5359.479 -1941.942)" fill="#ee5f00"/>
      <path id="Path_54" data-name="Path 54" d="M7059.949,2001.443q18.516-29.464,52.639-46.319,34.1-16.837,68.636-16.844,44.632,0,81.694,16.424a191.317,191.317,0,0,1,63.583,45.06,208.894,208.894,0,0,1,41.267,66.11,218.876,218.876,0,0,1,0,157.916,209.863,209.863,0,0,1-41.267,65.69,191.177,191.177,0,0,1-63.583,45.06q-37.076,16.428-81.694,16.424-34.546,0-68.636-16.844-34.115-16.837-52.639-46.319v250.135h-91.8v-589.55h91.8Zm116.229,18.523q-26.967,0-48.426,10.1a113.983,113.983,0,0,0-36.634,26.949,116.043,116.043,0,0,0-23.164,39.588,148.062,148.062,0,0,0,0,96.012,115.82,115.82,0,0,0,23.164,39.58,113.763,113.763,0,0,0,36.634,26.949q21.477,10.109,48.426,10.1,26.1,0,47.167-10.1a114.077,114.077,0,0,0,59.378-66.529,148.062,148.062,0,0,0,0-96.012,114.061,114.061,0,0,0-59.378-66.537Q7202.277,2019.974,7176.178,2019.967Z" transform="translate(-5496.064 -1938.28)" fill="#ee5f00"/>
    </g>
    <g id="Group_24" data-name="Group 24" transform="translate(3808.375 2495.472)">
      <path id="Path_55" data-name="Path 55" d="M4912.01,2962.435V2821.65h58.8a52.311,52.311,0,0,1,21.116,4.125,49.787,49.787,0,0,1,16.174,11.092,48.924,48.924,0,0,1,10.341,16.2,54.217,54.217,0,0,1,0,38.976,48.828,48.828,0,0,1-10.333,16.2,49.709,49.709,0,0,1-16.159,11.092,52.235,52.235,0,0,1-21.1,4.125h-26.242v38.976h-32.6Zm32.591-65.586h22.287a21.89,21.89,0,0,0,16.446-7.313,24.077,24.077,0,0,0,4.515-7.7,26.539,26.539,0,0,0,1.621-9.229,26.981,26.981,0,0,0-1.621-9.28,24.062,24.062,0,0,0-4.515-7.755,21.854,21.854,0,0,0-7.115-5.3,21.4,21.4,0,0,0-9.324-2.011h-22.287v48.6Z" transform="translate(-4912.01 -2813.894)" fill="#ee5f00"/>
      <path id="Path_56" data-name="Path 56" d="M5065.52,2830.557a18.7,18.7,0,0,1,5.642-13.839,19.2,19.2,0,0,1,14.089-5.6,20.72,20.72,0,0,1,7.852,1.473,19.743,19.743,0,0,1,6.334,4.073,18.583,18.583,0,0,1,4.22,6.231,19.59,19.59,0,0,1,1.524,7.66,18.882,18.882,0,0,1-1.524,7.557,19.84,19.84,0,0,1-4.22,6.231,19.56,19.56,0,0,1-6.334,4.22,20.087,20.087,0,0,1-7.852,1.524,19.381,19.381,0,0,1-7.755-1.524,19.918,19.918,0,0,1-10.451-10.451A18.865,18.865,0,0,1,5065.52,2830.557Zm4.419,129.1v-96.9h30.728v96.9Z" transform="translate(-4952.458 -2811.12)" fill="#ee5f00"/>
      <path id="Path_57" data-name="Path 57" d="M5127.6,2928.688a52.523,52.523,0,0,1,3.682-19.635,47.6,47.6,0,0,1,10.65-16.2,51.483,51.483,0,0,1,16.888-11.092,57.871,57.871,0,0,1,22.383-4.125,59.214,59.214,0,0,1,22.714,4.125,51.058,51.058,0,0,1,16.947,11.092,48.592,48.592,0,0,1,10.694,16.2,51.7,51.7,0,0,1,3.742,19.635,52.239,52.239,0,0,1-3.742,19.687,48.442,48.442,0,0,1-10.694,16.248,51.063,51.063,0,0,1-16.947,11.092,59.155,59.155,0,0,1-22.714,4.125,57.816,57.816,0,0,1-22.383-4.125,51.482,51.482,0,0,1-16.888-11.092,47.6,47.6,0,0,1-10.65-16.2A52.836,52.836,0,0,1,5127.6,2928.688Zm30.727,0a28.469,28.469,0,0,0,1.621,9.744,24.3,24.3,0,0,0,4.618,7.918,21.142,21.142,0,0,0,7.218,5.34,22.379,22.379,0,0,0,9.427,1.93,23.411,23.411,0,0,0,9.575-1.93,20.909,20.909,0,0,0,7.365-5.34,26.1,26.1,0,0,0,4.713-7.866,28.245,28.245,0,0,0,0-19.393,25.233,25.233,0,0,0-4.713-7.917,21.87,21.87,0,0,0-7.314-5.347,22.833,22.833,0,0,0-9.619-1.981,21.791,21.791,0,0,0-16.645,7.328,23.759,23.759,0,0,0-4.618,7.917A28.339,28.339,0,0,0,5158.327,2928.688Z" transform="translate(-4968.815 -2828.647)" fill="#ee5f00"/>
      <path id="Path_58" data-name="Path 58" d="M5287.78,2977.253v-96.9h30.728v14.038a28.007,28.007,0,0,1,12.174-12.174q8.153-4.32,19.635-4.324a41.144,41.144,0,0,1,16.3,2.946,26.818,26.818,0,0,1,10.9,8.146,28.9,28.9,0,0,1,6.083,12.962,92.215,92.215,0,0,1,1.473,17.772v57.529h-30.728v-49.678q0-10.407-3.734-16.933t-13.353-6.525q-9.423,0-14.089,6.628t-4.662,17.816v48.7Z" transform="translate(-5011.02 -2828.713)" fill="#ee5f00"/>
      <path id="Path_59" data-name="Path 59" d="M5434.189,2928.685a58.7,58.7,0,0,1,3.3-19.93,45.455,45.455,0,0,1,9.848-16.152,46.7,46.7,0,0,1,16.144-10.945,57.366,57.366,0,0,1,22.3-4.029,55.274,55.274,0,0,1,20.6,3.631,49.854,49.854,0,0,1,15.644,9.67,42.1,42.1,0,0,1,10.054,14.089,41.56,41.56,0,0,1,3.527,16.888c0,2.033-.036,4.176-.095,6.43a54.4,54.4,0,0,1-.885,7.807h-69.7a29.056,29.056,0,0,0,1.325,7.5,15.948,15.948,0,0,0,3.624,6.179,16.925,16.925,0,0,0,6.511,4.154,28.724,28.724,0,0,0,9.987,1.5q8.031,0,12.145-2.563a13.787,13.787,0,0,0,5.679-6.275h30.233a32.94,32.94,0,0,1-4.706,12.859,37.9,37.9,0,0,1-9.854,10.5,49.454,49.454,0,0,1-14.465,7.166,62.044,62.044,0,0,1-18.833,2.652,62.833,62.833,0,0,1-22.493-3.734,43.707,43.707,0,0,1-26.478-26.75A59.955,59.955,0,0,1,5434.189,2928.685Zm30.735-10.215h40.545q0-9.424-5.539-14.87t-14.347-5.45q-9.015,0-14.833,5.251T5464.925,2918.47Z" transform="translate(-5049.596 -2828.644)" fill="#ee5f00"/>
      <path id="Path_60" data-name="Path 60" d="M5584.6,2928.685a58.709,58.709,0,0,1,3.3-19.93,45.462,45.462,0,0,1,9.848-16.152,46.707,46.707,0,0,1,16.144-10.945,57.369,57.369,0,0,1,22.3-4.029,55.27,55.27,0,0,1,20.6,3.631,49.857,49.857,0,0,1,15.644,9.67,42.1,42.1,0,0,1,10.053,14.089,41.553,41.553,0,0,1,3.528,16.888c0,2.033-.037,4.176-.1,6.43a54.38,54.38,0,0,1-.884,7.807h-69.7a29.056,29.056,0,0,0,1.325,7.5,15.955,15.955,0,0,0,3.624,6.179,16.92,16.92,0,0,0,6.51,4.154,28.726,28.726,0,0,0,9.987,1.5q8.032,0,12.146-2.563a13.788,13.788,0,0,0,5.678-6.275h30.234a32.949,32.949,0,0,1-4.707,12.859,37.882,37.882,0,0,1-9.854,10.5,49.442,49.442,0,0,1-14.465,7.166,62.044,62.044,0,0,1-18.833,2.652,62.833,62.833,0,0,1-22.493-3.734,43.7,43.7,0,0,1-26.477-26.75A59.944,59.944,0,0,1,5584.6,2928.685Zm30.727-10.215h40.545q0-9.424-5.539-14.87t-14.347-5.45q-9.015,0-14.833,5.251T5615.327,2918.47Z" transform="translate(-5089.228 -2828.644)" fill="#ee5f00"/>
      <path id="Path_61" data-name="Path 61" d="M5736.96,2977.538v-96.9h30.728v15.71q3.435-6.872,11.386-12.123a32.4,32.4,0,0,1,18.258-5.251,23.031,23.031,0,0,1,9.229,1.672v27.98q-3.237-.784-5.45-1.127a36.431,36.431,0,0,0-5.45-.346q-12.661,0-20.32,7.461t-7.66,25.13v37.8h-30.72Z" transform="translate(-5129.373 -2828.998)" fill="#ee5f00"/>
      <path id="Path_62" data-name="Path 62" d="M5840.359,2830.557a18.7,18.7,0,0,1,5.642-13.839,19.2,19.2,0,0,1,14.09-5.6,20.72,20.72,0,0,1,7.852,1.473,19.743,19.743,0,0,1,6.334,4.073,18.575,18.575,0,0,1,4.22,6.231,19.581,19.581,0,0,1,1.524,7.66,18.874,18.874,0,0,1-1.524,7.557,19.83,19.83,0,0,1-4.22,6.231,19.56,19.56,0,0,1-6.334,4.22,20.087,20.087,0,0,1-7.852,1.524,19.375,19.375,0,0,1-7.755-1.524,19.912,19.912,0,0,1-10.451-10.451A18.741,18.741,0,0,1,5840.359,2830.557Zm4.412,129.1v-96.9H5875.5v96.9Z" transform="translate(-5156.616 -2811.12)" fill="#ee5f00"/>
      <path id="Path_63" data-name="Path 63" d="M5902.04,2977.253v-96.9h30.728v14.038a28.011,28.011,0,0,1,12.174-12.174q8.153-4.32,19.636-4.324a41.14,41.14,0,0,1,16.3,2.946,26.81,26.81,0,0,1,10.9,8.146,28.908,28.908,0,0,1,6.084,12.962,92.257,92.257,0,0,1,1.473,17.772v57.529h-30.728v-49.678q0-10.407-3.733-16.933t-13.354-6.525q-9.423,0-14.089,6.628t-4.663,17.816v48.7Z" transform="translate(-5172.869 -2828.713)" fill="#ee5f00"/>
      <path id="Path_64" data-name="Path 64" d="M6047.74,2928.759a60.356,60.356,0,0,1,3.292-20.225,44.978,44.978,0,0,1,24.394-26.7,46.257,46.257,0,0,1,19.341-3.926,37.717,37.717,0,0,1,17.573,4.323,28.146,28.146,0,0,1,12.373,11.976V2880.37h30.728v96.3q0,13.257-3.778,21.992a36.435,36.435,0,0,1-11.438,14.627,47.8,47.8,0,0,1-16.3,7.807,87.6,87.6,0,0,1-22.972,2.6q-13.644,0-22.781-3a43.6,43.6,0,0,1-15.216-8.293,38.985,38.985,0,0,1-10.061-12.521,37.508,37.508,0,0,1-3.977-15.165h30.728q.585,5.546,5.937,10.09t15.363,4.537q10.893,0,17.33-5.023t6.43-16V2962.83a29.472,29.472,0,0,1-12.079,10.849,37.4,37.4,0,0,1-17.478,4.176,49.711,49.711,0,0,1-19.193-3.631,43.519,43.519,0,0,1-15.025-10.164,46.814,46.814,0,0,1-9.722-15.459A54.482,54.482,0,0,1,6047.74,2928.759Zm30.727,0a28.38,28.38,0,0,0,1.621,9.575,22.76,22.76,0,0,0,4.618,7.851,23.024,23.024,0,0,0,7.218,5.3,21.651,21.651,0,0,0,9.427,2.01,22.776,22.776,0,0,0,16.94-7.313,24.365,24.365,0,0,0,4.713-7.807,26.906,26.906,0,0,0,1.716-9.619,25.863,25.863,0,0,0-1.716-9.427,26.484,26.484,0,0,0-4.713-7.851,21.079,21.079,0,0,0-7.365-5.4,23.076,23.076,0,0,0-9.575-1.967,22.06,22.06,0,0,0-9.427,1.967,21.492,21.492,0,0,0-7.218,5.4,25,25,0,0,0-4.618,7.851A27.118,27.118,0,0,0,6078.467,2928.759Z" transform="translate(-5211.259 -2828.718)" fill="#ee5f00"/>
      <path id="Path_65" data-name="Path 65" d="M6287.8,2962.435V2821.65h32.988v140.785Z" transform="translate(-5274.511 -2813.894)" fill="#ee5f00"/>
      <path id="Path_66" data-name="Path 66" d="M6347.4,2977.253v-96.9h30.727v14.038a28.011,28.011,0,0,1,12.175-12.174q8.153-4.32,19.635-4.324a41.144,41.144,0,0,1,16.3,2.946,26.818,26.818,0,0,1,10.9,8.146,28.9,28.9,0,0,1,6.083,12.962,92.215,92.215,0,0,1,1.473,17.772v57.529h-30.728v-49.678q0-10.407-3.734-16.933t-13.353-6.525q-9.423,0-14.089,6.628t-4.662,17.816v48.7Z" transform="translate(-5290.215 -2828.713)" fill="#ee5f00"/>
      <path id="Path_67" data-name="Path 67" d="M6494.479,2977.253v-96.9h30.728v14.038a28.013,28.013,0,0,1,12.174-12.174q8.153-4.32,19.636-4.324a41.142,41.142,0,0,1,16.3,2.946,26.816,26.816,0,0,1,10.9,8.146,28.907,28.907,0,0,1,6.083,12.962,92.254,92.254,0,0,1,1.473,17.772v57.529h-30.728v-49.678q0-10.407-3.734-16.933t-13.353-6.525q-9.423,0-14.089,6.628t-4.662,17.816v48.7Z" transform="translate(-5328.968 -2828.713)" fill="#ee5f00"/>
      <path id="Path_68" data-name="Path 68" d="M6636.49,2928.688a52.524,52.524,0,0,1,3.683-19.635,47.593,47.593,0,0,1,10.65-16.2,51.483,51.483,0,0,1,16.888-11.092,57.873,57.873,0,0,1,22.383-4.125,59.188,59.188,0,0,1,22.714,4.125,51.058,51.058,0,0,1,16.947,11.092,48.593,48.593,0,0,1,10.694,16.2,51.706,51.706,0,0,1,3.741,19.635,52.248,52.248,0,0,1-3.741,19.687,48.443,48.443,0,0,1-10.694,16.248,51.063,51.063,0,0,1-16.947,11.092,59.155,59.155,0,0,1-22.714,4.125,57.818,57.818,0,0,1-22.383-4.125,51.482,51.482,0,0,1-16.888-11.092,47.594,47.594,0,0,1-10.65-16.2A52.837,52.837,0,0,1,6636.49,2928.688Zm30.727,0a28.469,28.469,0,0,0,1.621,9.744,24.3,24.3,0,0,0,4.618,7.918,21.142,21.142,0,0,0,7.218,5.34,22.379,22.379,0,0,0,9.427,1.93,23.409,23.409,0,0,0,9.575-1.93,20.9,20.9,0,0,0,7.365-5.34,26.09,26.09,0,0,0,4.713-7.866,28.245,28.245,0,0,0,0-19.393,25.224,25.224,0,0,0-4.713-7.917,21.87,21.87,0,0,0-7.314-5.347,22.832,22.832,0,0,0-9.619-1.981,21.791,21.791,0,0,0-16.645,7.328,23.749,23.749,0,0,0-4.618,7.917A28.327,28.327,0,0,0,6667.217,2928.688Z" transform="translate(-5366.386 -2828.647)" fill="#ee5f00"/>
      <path id="Path_69" data-name="Path 69" d="M6772.85,2881.23h32.2l23.465,60.873,23.76-60.873h32.2l-43.882,96.9h-24.541Z" transform="translate(-5402.314 -2829.593)" fill="#ee5f00"/>
      <path id="Path_70" data-name="Path 70" d="M6915.62,2928.759a58.762,58.762,0,0,1,3.395-20.225,46.774,46.774,0,0,1,9.656-16.049,45.739,45.739,0,0,1,15.024-10.65,46.754,46.754,0,0,1,19.312-3.926,33.132,33.132,0,0,1,9.207,1.326,39.4,39.4,0,0,1,8.521,3.535,32.5,32.5,0,0,1,6.953,5.2,26.884,26.884,0,0,1,4.8,6.231v-13.839h30.728v96.9h-30.728v-13.648a23.724,23.724,0,0,1-4.8,6.334,32.161,32.161,0,0,1-6.953,5.008,43.009,43.009,0,0,1-8.521,3.439,33.132,33.132,0,0,1-9.207,1.326,46.861,46.861,0,0,1-19.26-3.926,45.319,45.319,0,0,1-15.068-10.7,47.354,47.354,0,0,1-9.656-16.1A58.754,58.754,0,0,1,6915.62,2928.759Zm30.727,0a26.9,26.9,0,0,0,1.717,9.575,24.034,24.034,0,0,0,4.706,7.851,22.883,22.883,0,0,0,7.2,5.3,21.55,21.55,0,0,0,9.405,2.01,21.9,21.9,0,0,0,9.457-2.01,22.732,22.732,0,0,0,7.247-5.3,24.314,24.314,0,0,0,4.7-7.807,26.906,26.906,0,0,0,1.717-9.619,25.853,25.853,0,0,0-1.717-9.427,26.423,26.423,0,0,0-4.7-7.851,21.514,21.514,0,0,0-7.2-5.4,22.185,22.185,0,0,0-9.5-1.967,21.957,21.957,0,0,0-9.405,1.967,21.5,21.5,0,0,0-7.2,5.4,26.706,26.706,0,0,0-4.706,7.851A25.876,25.876,0,0,0,6946.347,2928.759Z" transform="translate(-5439.933 -2828.718)" fill="#ee5f00"/>
      <path id="Path_71" data-name="Path 71" d="M7077.09,2895.814v-24.349h15.121v-27.3h30.728v27.3h21.992v24.349h-21.992v33.725a28.593,28.593,0,0,0,.979,8.36,10.747,10.747,0,0,0,2.8,4.78,9.706,9.706,0,0,0,4.22,2.291,21.04,21.04,0,0,0,5.251.619q2.851,0,5.841-.147a43.753,43.753,0,0,0,5.251-.538v23.473q-3.436.585-8.588,1.075c-3.439.324-7.409.486-11.932.486a93.223,93.223,0,0,1-11.512-.766,26.9,26.9,0,0,1-11.231-4.043,24.193,24.193,0,0,1-8.47-10.061q-3.347-6.783-3.351-18.626v-40.626H7077.09Z" transform="translate(-5482.478 -2819.828)" fill="#ee5f00"/>
      <path id="Path_72" data-name="Path 72" d="M7180.22,2830.557a18.7,18.7,0,0,1,5.642-13.839,19.2,19.2,0,0,1,14.089-5.6,20.72,20.72,0,0,1,7.852,1.473,19.738,19.738,0,0,1,6.334,4.073,18.583,18.583,0,0,1,4.22,6.231,19.581,19.581,0,0,1,1.524,7.66,18.874,18.874,0,0,1-1.524,7.557,19.84,19.84,0,0,1-4.22,6.231,19.555,19.555,0,0,1-6.334,4.22,20.087,20.087,0,0,1-7.852,1.524,19.381,19.381,0,0,1-7.755-1.524,19.918,19.918,0,0,1-10.451-10.451A18.865,18.865,0,0,1,7180.22,2830.557Zm4.419,129.1v-96.9h30.728v96.9Z" transform="translate(-5509.651 -2811.12)" fill="#ee5f00"/>
      <path id="Path_73" data-name="Path 73" d="M7242.29,2928.688a52.524,52.524,0,0,1,3.683-19.635,47.593,47.593,0,0,1,10.65-16.2,51.483,51.483,0,0,1,16.888-11.092,57.871,57.871,0,0,1,22.383-4.125,59.214,59.214,0,0,1,22.714,4.125,51.058,51.058,0,0,1,16.947,11.092,48.584,48.584,0,0,1,10.694,16.2,51.7,51.7,0,0,1,3.742,19.635,52.239,52.239,0,0,1-3.742,19.687,48.434,48.434,0,0,1-10.694,16.248,51.063,51.063,0,0,1-16.947,11.092,59.155,59.155,0,0,1-22.714,4.125,57.816,57.816,0,0,1-22.383-4.125,51.482,51.482,0,0,1-16.888-11.092,47.594,47.594,0,0,1-10.65-16.2A52.837,52.837,0,0,1,7242.29,2928.688Zm30.734,0a28.469,28.469,0,0,0,1.621,9.744,24.305,24.305,0,0,0,4.618,7.918,21.137,21.137,0,0,0,7.218,5.34,22.376,22.376,0,0,0,9.427,1.93,23.409,23.409,0,0,0,9.574-1.93,20.9,20.9,0,0,0,7.365-5.34,26.092,26.092,0,0,0,4.714-7.866,28.253,28.253,0,0,0,0-19.393,25.225,25.225,0,0,0-4.714-7.917,21.863,21.863,0,0,0-7.313-5.347,22.834,22.834,0,0,0-9.619-1.981,21.791,21.791,0,0,0-16.645,7.328,23.758,23.758,0,0,0-4.618,7.917A28.327,28.327,0,0,0,7273.024,2928.688Z" transform="translate(-5526.006 -2828.647)" fill="#ee5f00"/>
      <path id="Path_74" data-name="Path 74" d="M7402.479,2977.253v-96.9h30.728v14.038a28.014,28.014,0,0,1,12.175-12.174q8.153-4.32,19.636-4.324a41.143,41.143,0,0,1,16.3,2.946,26.823,26.823,0,0,1,10.9,8.146,28.917,28.917,0,0,1,6.083,12.962,92.25,92.25,0,0,1,1.474,17.772v57.529h-30.728v-49.678q0-10.407-3.734-16.933t-13.353-6.525q-9.423,0-14.09,6.628t-4.662,17.816v48.7Z" transform="translate(-5568.213 -2828.713)" fill="#ee5f00"/>
    </g>
  </g>
</svg>
